
<svg xmlns="http://www.w3.org/2000/svg" viewBox="0 0 1235 650">
  <rect width="1235" height="650" fill="#bf0a30"/>
  <rect width="1235" height="50" fill="#ffffff" y="50"/>
  <rect width="1235" height="50" fill="#ffffff" y="150"/>
  <rect width="1235" height="50" fill="#ffffff" y="250"/>
  <rect width="1235" height="50" fill="#ffffff" y="350"/>
  <rect width="1235" height="50" fill="#ffffff" y="450"/>
  <rect width="1235" height="50" fill="#ffffff" y="550"/>
  <rect width="494" height="350" fill="#002868"/>
  <g fill="#ffffff">
    <!-- Stars -->
    <circle cx="41.2" cy="29.2" r="16"/>
    <circle cx="123.5" cy="29.2" r="16"/>
    <circle cx="205.9" cy="29.2" r="16"/>
    <circle cx="288.2" cy="29.2" r="16"/>
    <circle cx="370.6" cy="29.2" r="16"/>
    <circle cx="452.9" cy="29.2" r="16"/>
    
    <circle cx="82.4" cy="87.5" r="16"/>
    <circle cx="164.7" cy="87.5" r="16"/>
    <circle cx="247.1" cy="87.5" r="16"/>
    <circle cx="329.4" cy="87.5" r="16"/>
    <circle cx="411.8" cy="87.5" r="16"/>
    
    <circle cx="41.2" cy="145.8" r="16"/>
    <circle cx="123.5" cy="145.8" r="16"/>
    <circle cx="205.9" cy="145.8" r="16"/>
    <circle cx="288.2" cy="145.8" r="16"/>
    <circle cx="370.6" cy="145.8" r="16"/>
    <circle cx="452.9" cy="145.8" r="16"/>
    
    <circle cx="82.4" cy="204.2" r="16"/>
    <circle cx="164.7" cy="204.2" r="16"/>
    <circle cx="247.1" cy="204.2" r="16"/>
    <circle cx="329.4" cy="204.2" r="16"/>
    <circle cx="411.8" cy="204.2" r="16"/>
    
    <circle cx="41.2" cy="262.5" r="16"/>
    <circle cx="123.5" cy="262.5" r="16"/>
    <circle cx="205.9" cy="262.5" r="16"/>
    <circle cx="288.2" cy="262.5" r="16"/>
    <circle cx="370.6" cy="262.5" r="16"/>
    <circle cx="452.9" cy="262.5" r="16"/>
    
    <circle cx="82.4" cy="320.8" r="16"/>
    <circle cx="164.7" cy="320.8" r="16"/>
    <circle cx="247.1" cy="320.8" r="16"/>
    <circle cx="329.4" cy="320.8" r="16"/>
    <circle cx="411.8" cy="320.8" r="16"/>
  </g>
</svg>
